# xmcd CD database file
#
# Track frame offsets:
#	150
#	17546
#	38049
#	55449
#
# Disc length: 1009 seconds
#
# Revision: 0
# Processed by: cddbd v1.5.1PL2 Copyright (c) Steve Scherf et al.
# Submitted via: CDex 1.51
#
DISCID=2903ef04
DTITLE=おねがいマイメロディ - 夢見るチカラ
DYEAR=1900
DGENRE=Anime
TTITLE0=01夢見るチカラ
TTITLE1=02おねがいクリスマス
TTITLE2=03夢見るチカラInstrumental Version
TTITLE3=04おねがいクリスマスInstrumental Version
EXTD=
EXTT0=
EXTT1=
EXTT2=
EXTT3=
PLAYORDER=
